<?xml version="1.0" standalone="no"?>
<!DOCTYPE svg PUBLIC "-//W3C//DTD SVG 20010904//EN"
 "http://www.w3.org/TR/2001/REC-SVG-20010904/DTD/svg10.dtd">
<svg version="1.0" xmlns="http://www.w3.org/2000/svg"
   width="1000"
   height="1000"
   viewBox="0 -0.064 1000 1000"
 preserveAspectRatio="xMidYMid meet">

<g transform="translate(-350.00000,1470.000000) scale(0.500000,-0.500000)"
fill="#000000" stroke="none">
<path d="M1655 2859 c-162 -111 -353 -151 -566 -118 -39 6 -73 8 -76 6 -14
-14 -33 -207 -33 -332 0 -420 162 -861 431 -1172 107 -125 293 -270 330 -258
40 13 177 126 266 219 227 237 395 598 454 971 17 103 16 378 0 475 -19 115
-16 110 -59 97 -20 -6 -100 -11 -177 -11 -120 -1 -151 2 -215 22 -87 28 -157
61 -220 106 -25 18 -49 35 -55 38 -5 3 -41 -16 -80 -43z m92 -1 c9 -12 -3
-307 -12 -316 -2 -2 -8 -1 -13 2 -10 6 -26 301 -17 316 9 14 31 12 42 -2z
m-87 -45 c1 -5 9 -66 19 -138 10 -71 15 -134 11 -138 -4 -5 -20 -7 -34 -5 -23
3 -33 17 -77 112 -27 60 -47 111 -44 114 8 8 109 61 118 61 4 1 7 -2 7 -6z
m201 -23 c69 -36 69 -24 3 -166 -41 -88 -45 -94 -74 -94 -24 0 -30 4 -30 21 0
32 32 269 37 269 2 0 31 -14 64 -30z m-310 -155 c32 -55 58 -106 59 -112 1
-33 -32 -3 -102 95 -67 91 -75 108 -60 114 33 13 45 2 103 -97z m467 90 c6 -6
-151 -210 -164 -213 -8 -2 -14 0 -14 4 0 4 28 56 61 116 58 103 63 109 88 103
14 -4 27 -8 29 -10z m-692 -142 c200 -129 249 -179 96 -96 -48 26 -154 84
-236 128 -166 89 -190 112 -106 100 45 -6 83 -27 246 -132z m1094 125 c-1 -11
-431 -248 -466 -256 -40 -10 5 25 173 133 103 66 201 123 217 126 52 11 76 10
76 -3z m-941 -105 c88 -99 93 -107 76 -119 -10 -8 -21 -14 -24 -14 -3 1 -75
52 -160 115 l-154 114 49 4 c126 9 109 17 213 -100z m714 99 l38 -7 -155 -113
c-145 -106 -157 -112 -176 -99 -20 14 -17 18 75 121 94 103 98 106 138 105 23
0 59 -3 80 -7z m-929 -162 c124 -58 226 -107 226 -110 0 -3 -4 -11 -9 -18 -13
-21 -465 107 -469 132 -6 27 8 108 17 104 5 -2 110 -50 235 -108z m1178 41 l3
-54 -229 -64 c-215 -61 -230 -64 -245 -48 -9 10 -12 19 -6 21 6 3 111 51 235
109 123 57 228 101 231 97 4 -4 9 -31 11 -61z m-596 -99 c23 -12 55 -33 72
-47 32 -27 82 -116 82 -148 0 -16 -5 -17 -47 -11 -27 4 -77 15 -112 26 -80 25
-150 24 -229 -1 -34 -11 -85 -23 -113 -27 l-50 -7 7 29 c16 65 56 120 126 173
60 45 189 52 264 13z m-606 -49 c118 -25 217 -48 219 -50 3 -2 0 -7 -5 -12 -5
-5 -98 4 -214 20 -113 15 -213 28 -222 29 -13 0 -18 8 -18 30 0 17 5 30 13 30
6 0 109 -21 227 -47z m1210 17 c0 -16 -4 -30 -9 -30 -15 0 -384 -50 -413 -56
-20 -4 -28 -2 -28 8 0 9 63 27 208 60 114 25 215 46 225 47 13 1 17 -7 17 -29z
m-1170 -91 c85 -6 156 -12 157 -13 1 -1 0 -19 -4 -39 -7 -45 -10 -45 -128 -12
-97 27 -201 32 -254 14 -18 -6 -34 -10 -36 -8 -2 2 -6 21 -10 43 l-8 39 64 -7
c35 -3 134 -11 219 -17z m1170 -20 c0 -35 -3 -40 -17 -34 -40 15 -118 24 -157
19 -22 -4 -81 -17 -131 -30 -49 -13 -95 -24 -101 -24 -16 0 -36 70 -21 75 10
4 320 30 400 34 25 1 27 -2 27 -40z m-1179 -63 c167 -43 205 -42 372 6 84 24
95 23 237 -17 86 -25 181 -22 295 9 54 14 117 26 140 25 57 -1 119 -22 123
-41 3 -15 -1 -15 -44 -2 -65 19 -116 18 -204 -7 -161 -44 -220 -44 -369 1 -82
26 -111 25 -207 -4 -135 -40 -182 -41 -319 -6 -136 34 -162 36 -231 15 -27 -8
-50 -15 -51 -15 -2 0 -3 7 -3 15 0 17 78 43 131 44 20 1 79 -10 130 -23z m22
-62 c119 -31 218 -29 325 5 84 27 133 26 239 -5 75 -22 101 -25 173 -20 47 2
114 14 150 25 76 24 176 27 225 7 39 -17 50 -43 13 -31 -64 20 -164 17 -258
-9 -120 -33 -193 -33 -304 -1 -105 30 -155 31 -238 4 -107 -34 -206 -36 -325
-5 -114 29 -187 33 -238 12 -31 -13 -35 -13 -35 0 0 22 57 43 118 44 29 0 99
-12 155 -26z m12 -61 c116 -29 196 -27 305 8 83 27 148 27 234 0 117 -36 185
-37 306 -5 116 31 198 36 248 15 32 -13 33 -16 27 -55 -13 -77 -56 -228 -92
-325 -120 -323 -313 -584 -551 -748 l-52 -36 -73 49 c-276 187 -516 575 -611
987 -23 97 -21 113 12 125 61 25 102 22 247 -15z"/>
<path d="M1698 2093 c4 -31 2 -35 -13 -30 -9 4 -27 10 -40 13 -20 5 -23 3 -18
-16 3 -11 -2 -38 -12 -60 -12 -27 -15 -49 -10 -72 3 -18 7 -48 6 -67 0 -22 10
-47 27 -69 25 -33 27 -42 35 -205 7 -150 6 -172 -7 -179 -22 -13 -20 -60 4
-81 16 -14 20 -29 20 -85 0 -70 10 -92 41 -92 25 0 27 6 35 96 5 60 12 82 26
92 23 17 23 47 0 64 -17 12 -18 25 -10 186 8 165 10 175 33 200 25 27 34 76
15 87 -6 4 -4 16 6 31 14 20 15 31 5 69 -6 25 -9 56 -5 70 7 27 -12 35 -34 13
-8 -8 -21 -1 -52 30 -22 23 -44 42 -48 42 -4 0 -6 -16 -4 -37z m82 -101 c0
-20 -10 -52 -21 -71 -19 -31 -22 -33 -31 -17 -6 10 -8 31 -6 46 2 16 0 26 -5
23 -5 -3 -7 -23 -5 -44 4 -40 -5 -52 -16 -23 -10 27 -7 59 9 80 8 10 15 23 15
28 0 6 -12 -6 -26 -25 -20 -26 -24 -42 -20 -69 5 -32 4 -34 -9 -16 -23 30 -18
57 20 110 19 27 35 57 35 65 0 11 10 5 30 -17 22 -24 30 -42 30 -70z m-112 56
c8 -8 7 -17 -7 -37 -27 -38 -33 -65 -22 -94 8 -21 7 -25 -5 -20 -22 8 -26 45
-9 85 8 21 15 47 15 58 0 22 10 26 28 8z m152 -135 c-6 -15 -18 -23 -35 -23
-25 0 -25 1 -9 25 9 14 17 45 18 68 1 23 6 49 11 57 14 22 28 -99 15 -127z m6
-58 c13 -33 -15 -45 -103 -45 -87 0 -103 8 -89 45 8 22 184 22 192 0z m-41
-75 c-8 -13 -95 -13 -115 0 -10 7 5 10 53 10 43 0 66 -4 62 -10z m-85 -112 c0
-51 3 -131 6 -178 3 -54 2 -80 -4 -70 -13 22 -25 340 -12 340 6 0 10 -37 10
-92z m70 39 c0 -30 -3 -109 -7 -175 -5 -110 -8 -122 -25 -122 -16 0 -18 9 -18
83 0 46 -3 125 -6 175 l-7 92 32 0 c31 0 31 0 31 -53z m15 -337 c0 -23 -4 -25
-51 -28 -59 -3 -87 16 -64 43 10 12 28 15 64 13 47 -3 51 -5 51 -28z m-66 -77
c1 26 6 37 16 37 21 0 22 -142 1 -159 -22 -18 -29 2 -32 88 -2 59 -1 67 5 36
l8 -40 2 38z"/>
<path d="M1640 1842 c0 -21 4 -22 88 -20 l87 2 -75 3 c-55 3 -78 8 -87 20 -12
15 -13 15 -13 -5z"/>
<path d="M1672 1370 c3 -11 20 -15 59 -16 47 -1 48 -1 9 3 -24 2 -51 10 -59
16 -11 10 -13 9 -9 -3z"/>
<path d="M1388 2065 c5 -28 3 -29 -32 -15 -23 8 -26 7 -24 -13 1 -13 -4 -37
-11 -54 -10 -24 -10 -36 -1 -52 6 -12 9 -30 5 -40 -3 -10 4 -29 16 -45 18 -23
22 -45 26 -150 4 -86 2 -125 -6 -130 -16 -10 -14 -43 3 -53 10 -5 16 -29 18
-68 2 -49 6 -60 22 -63 26 -5 36 15 36 74 0 37 4 54 15 58 18 7 20 45 3 51
-10 4 -12 36 -10 128 3 103 7 125 23 143 11 12 19 35 19 55 0 19 1 62 2 96 3
61 -5 76 -28 53 -7 -7 -20 0 -39 20 -35 37 -44 38 -37 5z m56 -79 c0 -19 -6
-41 -13 -50 -12 -15 -15 -15 -27 1 -13 17 -14 17 -8 -2 6 -17 5 -18 -7 -7 -11
10 -11 19 -2 43 10 26 10 29 -3 19 -8 -7 -15 -27 -15 -44 l-2 -31 -4 29 c-3
19 3 39 16 57 12 16 21 36 21 46 0 15 3 15 22 -5 14 -14 22 -34 22 -56z m-74
39 c0 -3 -7 -17 -16 -30 -9 -14 -14 -36 -12 -50 3 -13 1 -22 -3 -19 -12 7 -11
32 3 71 10 28 28 46 28 28z m106 -90 c-3 -8 -12 -15 -21 -15 -12 0 -14 4 -5
19 5 11 10 35 11 53 l1 33 10 -38 c6 -20 7 -44 4 -52z m-1 -55 c0 -12 -15 -16
-67 -18 -63 -3 -68 -1 -68 18 0 19 5 21 68 18 52 -2 67 -6 67 -18z m-47 -47
c-10 -2 -26 -2 -35 0 -10 3 -2 5 17 5 19 0 27 -2 18 -5z m9 -95 c-4 -46 -7
-102 -7 -125 0 -37 -3 -43 -21 -43 -19 0 -21 4 -15 31 3 17 6 74 6 125 0 89 1
94 21 94 21 0 22 -3 16 -82z m-50 -40 c-2 -24 -4 -7 -4 37 0 44 2 63 4 43 2
-21 2 -57 0 -80z m62 -151 c15 -19 4 -27 -40 -27 -38 0 -55 12 -44 30 9 15 71
12 84 -3z m-28 -99 c-3 -44 -5 -48 -11 -26 -4 14 -10 30 -13 35 -7 11 11 55
20 50 5 -3 6 -29 4 -59z"/>
<path d="M1350 1878 c0 -5 26 -7 58 -7 61 1 55 6 -15 11 -24 2 -43 0 -43 -4z"/>
<path d="M1393 1533 c9 -2 23 -2 30 0 6 3 -1 5 -18 5 -16 0 -22 -2 -12 -5z"/>
<path d="M2013 2071 c6 -26 -7 -35 -32 -22 -16 9 -20 6 -24 -22 -3 -17 -9 -44
-12 -59 -4 -15 -4 -36 0 -45 5 -10 7 -26 6 -36 -1 -9 6 -29 17 -45 27 -38 41
-262 17 -282 -19 -16 -19 -25 -1 -43 8 -8 18 -41 23 -73 7 -50 11 -59 28 -59
17 0 21 9 26 57 4 32 13 64 23 73 20 21 20 29 0 46 -24 19 -11 242 16 279 14
20 18 43 17 118 -1 50 -4 92 -7 92 -3 0 -12 -4 -20 -9 -10 -7 -18 -4 -28 10
-7 10 -22 24 -34 30 -19 10 -20 9 -15 -10z m56 -86 c0 -35 -19 -65 -41 -65
-20 0 -28 31 -16 56 9 18 8 18 -6 0 -9 -12 -13 -28 -10 -39 4 -13 2 -17 -5
-13 -17 11 -13 51 7 69 10 10 21 14 24 11 3 -3 6 1 5 8 0 7 1 22 2 33 1 19 3
18 21 -5 11 -14 20 -38 19 -55z m-83 16 c-9 -10 -16 -33 -16 -52 -1 -27 -3
-31 -10 -17 -12 20 16 101 32 92 5 -3 3 -13 -6 -23z m118 -63 c-3 -10 -12 -18
-20 -18 -11 0 -13 6 -8 23 4 12 9 33 10 47 4 38 5 38 15 0 4 -19 6 -43 3 -52z
m-4 -58 c0 -18 -7 -20 -64 -20 -63 0 -84 9 -71 30 3 6 35 10 71 10 57 0 64 -2
64 -20z m-42 -47 c-10 -2 -28 -2 -40 0 -13 2 -5 4 17 4 22 1 32 -1 23 -4z m2
-122 c0 -60 -3 -116 -6 -125 -14 -37 -24 -11 -26 67 l-2 82 -7 -80 c-6 -73 -6
-71 -4 31 2 116 6 134 31 134 11 0 14 -21 14 -109z m-53 62 c-3 -10 -5 -4 -5
12 0 17 2 24 5 18 2 -7 2 -21 0 -30z m68 -233 c0 -18 -62 -27 -77 -12 -18 18
3 33 40 30 25 -2 37 -8 37 -18z m-25 -79 c0 -28 -4 -52 -9 -55 -10 -7 -20 60
-13 87 9 35 22 16 22 -32z"/>
<path d="M2022 1950 c0 -14 2 -19 5 -12 2 6 2 18 0 25 -3 6 -5 1 -5 -13z"/>
<path d="M1980 1878 c0 -4 24 -7 53 -7 54 1 49 5 -15 11 -21 2 -38 0 -38 -4z"/>
<path d="M2023 1533 c9 -2 23 -2 30 0 6 3 -1 5 -18 5 -16 0 -22 -2 -12 -5z"/>
</g>
</svg>
