<?xml version="1.0" standalone="no"?>
<!DOCTYPE svg PUBLIC "-//W3C//DTD SVG 20010904//EN"
 "http://www.w3.org/TR/2001/REC-SVG-20010904/DTD/svg10.dtd">
<svg version="1.0" xmlns="http://www.w3.org/2000/svg"
 width="587.000000pt" height="587.000000pt" viewBox="0 0 587.000000 587.000000"
 preserveAspectRatio="xMidYMid meet">

<g transform="translate(0.000000,587.000000) scale(0.100000,-0.100000)"
fill="#000000" stroke="none">
<path d="M5350 5844 c-19 -7 -61 -13 -92 -13 -69 -1 -153 -32 -180 -66 -11
-14 -25 -25 -31 -25 -20 0 -130 -71 -177 -115 -25 -22 -85 -62 -134 -89 -49
-26 -112 -65 -140 -86 -56 -41 -277 -164 -316 -175 -65 -19 -141 -68 -181
-115 -43 -51 -218 -175 -267 -190 -15 -4 -45 -17 -67 -28 -22 -11 -77 -25
-123 -32 -65 -10 -96 -21 -148 -52 -79 -48 -207 -83 -274 -75 -30 4 -55 1 -71
-8 -13 -8 -38 -20 -55 -28 -17 -8 -53 -30 -80 -49 -42 -30 -188 -92 -264 -113
-14 -4 -32 -13 -40 -20 -8 -7 -38 -23 -67 -36 -61 -27 -69 -51 -39 -112 14
-29 33 -45 80 -69 33 -16 70 -38 81 -47 22 -20 116 -61 137 -61 8 0 43 -25 80
-55 52 -44 73 -69 98 -122 28 -60 32 -81 37 -179 5 -122 -2 -147 -51 -193 -17
-16 -26 -35 -26 -56 0 -54 21 -83 81 -110 79 -35 139 -44 246 -36 81 7 101 12
170 48 44 23 107 51 142 63 35 11 87 39 116 61 50 38 103 61 250 111 33 11 75
27 93 34 18 8 40 14 49 14 9 0 48 17 87 39 39 21 82 42 96 46 14 4 39 18 57
31 17 13 34 24 38 24 3 0 41 14 85 31 75 29 228 130 335 222 22 19 76 58 120
88 44 30 82 57 85 61 3 4 21 14 40 23 19 9 62 32 95 52 33 19 77 41 98 49 21
7 67 40 102 71 l64 58 1 623 0 622 -52 -1 c-29 -1 -69 -7 -88 -15z"/>
<path d="M645 4447 c-11 -6 -49 -14 -84 -17 -62 -5 -65 -6 -88 -45 -13 -22
-33 -59 -44 -82 -11 -23 -23 -45 -28 -47 -5 -3 -12 -31 -16 -61 -6 -50 -3 -63
26 -123 28 -60 32 -78 34 -167 4 -156 14 -214 51 -293 18 -39 49 -105 68 -145
18 -39 37 -85 40 -102 4 -16 18 -52 31 -80 44 -92 73 -179 100 -300 31 -140
40 -165 72 -212 22 -32 24 -48 30 -202 7 -208 21 -241 102 -241 31 0 181 71
201 95 7 8 40 33 74 56 33 23 74 57 89 75 16 19 34 34 41 34 7 0 21 10 32 23
11 12 56 54 99 92 44 39 111 99 151 135 74 68 113 93 254 161 47 23 99 51 115
63 17 12 53 28 80 36 61 16 125 47 125 60 0 6 9 10 21 10 31 0 55 16 78 54 18
28 27 34 55 33 34 -1 84 29 159 96 18 16 43 36 57 45 98 63 118 95 85 138 -8
10 -15 27 -15 36 0 10 -11 24 -25 33 -14 8 -37 23 -52 32 -16 10 -35 18 -43
19 -31 5 -99 98 -121 165 -21 64 -21 69 -5 108 9 23 16 49 16 59 0 26 41 120
78 180 17 29 32 65 32 80 -1 96 -199 153 -417 118 -51 -7 -108 -11 -125 -7
-18 4 -67 6 -108 4 -115 -4 -119 -4 -150 12 -37 19 -87 19 -164 -1 -48 -13
-117 -17 -326 -18 l-265 -2 -80 34 c-185 79 -201 83 -240 59z"/>
<path d="M5418 3346 c-15 -8 -48 -13 -75 -13 -26 1 -75 -5 -108 -15 -118 -32
-201 -49 -265 -53 -65 -5 -89 -10 -165 -39 -22 -8 -59 -15 -82 -16 -23 0 -54
-5 -68 -10 -21 -8 -37 -6 -73 11 -26 11 -69 23 -97 26 -27 4 -72 17 -99 31
-46 23 -56 24 -160 19 -115 -6 -155 -15 -219 -49 -20 -11 -52 -21 -70 -24
-126 -15 -264 -52 -323 -86 -46 -25 -67 -30 -149 -35 -90 -6 -98 -8 -129 -37
-64 -59 -76 -87 -76 -169 0 -42 4 -78 9 -81 5 -3 19 -38 31 -78 30 -101 59
-158 80 -158 10 0 29 -9 43 -20 14 -11 45 -24 69 -30 24 -5 81 -20 128 -34 47
-14 91 -26 98 -26 7 0 37 -11 65 -24 29 -13 75 -34 102 -46 28 -13 73 -33 102
-46 28 -13 54 -24 57 -24 6 0 103 -58 121 -72 68 -54 97 -71 144 -84 71 -19
112 -33 232 -77 53 -20 145 -45 205 -57 101 -19 339 -92 429 -130 58 -25 283
-100 300 -100 13 0 15 98 15 780 l0 780 -22 0 c-13 0 -35 -6 -50 -14z"/>
<path d="M2235 2815 c-27 -7 -76 -20 -108 -29 -32 -9 -71 -23 -87 -31 -16 -8
-34 -15 -39 -15 -10 0 -122 -54 -240 -116 -30 -16 -75 -48 -100 -71 -40 -35
-90 -68 -161 -104 -104 -53 -262 -163 -314 -217 -72 -77 -171 -152 -197 -152
-11 0 -48 -29 -83 -64 l-63 -65 8 -52 c5 -29 6 -56 3 -61 -7 -11 55 -198 72
-218 7 -8 26 -46 43 -84 17 -37 39 -80 50 -94 10 -15 21 -51 25 -79 4 -32 22
-82 47 -127 49 -90 86 -234 94 -365 8 -112 18 -149 57 -212 24 -40 28 -57 28
-120 0 -89 15 -123 54 -127 16 -2 39 -10 50 -17 12 -7 68 -16 127 -20 l105 -7
51 40 c65 52 113 112 148 187 36 78 71 180 80 236 9 54 96 247 140 309 39 56
65 108 65 130 0 30 42 122 102 222 32 54 58 100 58 104 0 4 21 37 48 73 26 36
59 84 73 106 32 50 43 67 125 187 44 66 84 112 121 140 40 30 70 66 104 122
44 73 47 83 48 150 1 102 -10 131 -76 195 -58 56 -105 119 -117 159 -22 67
-224 119 -341 87z"/>
<path d="M3282 2210 c-18 -4 -41 -15 -51 -24 -10 -9 -44 -29 -77 -45 -59 -29
-96 -64 -296 -278 -43 -46 -115 -144 -167 -225 -51 -78 -114 -174 -141 -213
-60 -85 -230 -417 -230 -449 0 -13 -27 -61 -60 -107 -33 -46 -73 -103 -88
-127 -15 -24 -42 -61 -59 -84 -18 -22 -33 -44 -33 -50 0 -6 -22 -47 -49 -92
-26 -44 -51 -88 -54 -98 -9 -24 26 -29 91 -11 31 9 66 15 77 14 11 -1 58 -2
105 -1 63 1 98 -4 142 -21 l57 -21 111 22 c128 26 162 23 335 -35 55 -19 129
-37 165 -40 72 -8 207 -41 348 -86 80 -25 106 -29 185 -27 51 2 128 -3 172
-11 54 -9 109 -11 170 -6 50 4 104 7 120 7 70 -1 224 -22 275 -37 30 -9 78
-20 106 -25 28 -4 62 -13 74 -20 52 -28 175 -50 265 -48 59 1 115 -5 163 -17
50 -12 91 -16 134 -12 47 4 76 0 124 -16 61 -20 65 -20 133 -4 38 10 90 20
115 23 l46 7 -2 375 -3 375 -25 8 c-14 4 -57 17 -97 29 -39 11 -83 32 -99 45
-15 13 -86 53 -158 90 -72 37 -138 73 -146 79 -8 6 -35 22 -60 35 -68 36 -210
154 -255 212 -43 54 -203 191 -297 252 -51 33 -116 62 -248 110 -61 23 -167
114 -229 197 -28 37 -84 99 -124 136 -65 61 -90 76 -208 127 -74 32 -153 67
-177 78 -23 10 -44 19 -45 18 -1 -1 -17 -5 -35 -9z"/>
</g>
</svg>
